# xmcd CD database file
#
# Track frame offsets:
#	150
#	12960
#	29138
#	45147
#	60457
#	77834
#	93656
#	107482
#	121631
#	134573
#	151795
#	166913
#	179245
#
# Disc length: 2586 seconds
#
# Revision: 1
# Processed by: cddbd v1.5.1PL2 Copyright (c) Steve Scherf et al.
# Submitted via: CDex 1.50
#
DISCID=a00a180d
DTITLE=Pasadena Roof Orchestra - On Tour
DYEAR=1976
DGENRE=Jazz
TTITLE0=Black Bottom
TTITLE1=Top Hat, White Tie And Tails
TTITLE2=East St.Louis Toodle-oo
TTITLE3=Missisippi Mud
TTITLE4=Blue Skies
TTITLE5=Ball And Chain
TTITLE6=It Don't Mean A Thing (If It Ain't Got That Swing)
TTITLE7=Bye Bye Blackbird
TTITLE8=Clarinet Marmalade
TTITLE9=Meadow Lark
TTITLE10=Temptation Rag
TTITLE11=Nagasaki
TTITLE12=Encore
EXTD=YEAR: 1976
EXTT0=
EXTT1=
EXTT2=
EXTT3=
EXTT4=
EXTT5=
EXTT6=
EXTT7=
EXTT8=
EXTT9=
EXTT10=
EXTT11=
EXTT12=
PLAYORDER=
